<svg width="154" height="27" viewBox="0 0 154 27" fill="none" xmlns="http://www.w3.org/2000/svg">
<path d="M0.564 26V0.439999H1.284V26H0.564ZM9.12384 1.844V26H8.40384V0.439999H8.94384L28.4918 24.956V0.439999H29.2118V26H28.3838L9.12384 1.844ZM36.3531 26V0.439999H52.8051V1.16H37.0731V12.536H50.5011V13.256H37.0731V26H36.3531ZM67.5268 26.18C65.7748 26.18 64.1668 25.82 62.7028 25.1C61.2388 24.356 59.9788 23.372 58.9228 22.148C57.8668 20.924 57.0508 19.544 56.4748 18.008C55.8988 16.448 55.6108 14.852 55.6108 13.22C55.6108 11.516 55.9108 9.896 56.5108 8.36C57.1108 6.8 57.9508 5.42 59.0308 4.22C60.1108 2.996 61.3708 2.036 62.8108 1.34C64.2748 0.619998 65.8468 0.259999 67.5268 0.259999C69.3028 0.259999 70.9108 0.631999 72.3508 1.376C73.8148 2.12 75.0628 3.116 76.0948 4.364C77.1508 5.612 77.9668 7.004 78.5428 8.54C79.1188 10.076 79.4068 11.636 79.4068 13.22C79.4068 14.948 79.1068 16.592 78.5068 18.152C77.9068 19.688 77.0668 21.068 75.9868 22.292C74.9068 23.492 73.6468 24.44 72.2068 25.136C70.7668 25.832 69.2068 26.18 67.5268 26.18ZM56.3308 13.22C56.3308 14.804 56.6068 16.328 57.1588 17.792C57.7108 19.256 58.4908 20.564 59.4988 21.716C60.5068 22.868 61.6948 23.78 63.0628 24.452C64.4308 25.124 65.9188 25.46 67.5268 25.46C69.1828 25.46 70.6948 25.112 72.0628 24.416C73.4308 23.72 74.6068 22.784 75.5908 21.608C76.5748 20.432 77.3308 19.124 77.8588 17.684C78.4108 16.22 78.6868 14.732 78.6868 13.22C78.6868 11.636 78.3988 10.112 77.8228 8.648C77.2708 7.184 76.4908 5.876 75.4828 4.724C74.4748 3.572 73.2868 2.66 71.9188 1.988C70.5748 1.316 69.1108 0.979998 67.5268 0.979998C65.8708 0.979998 64.3468 1.328 62.9548 2.024C61.5868 2.72 60.4108 3.656 59.4268 4.832C58.4428 6.008 57.6748 7.328 57.1228 8.792C56.5948 10.232 56.3308 11.708 56.3308 13.22Z" fill="black"/>
<path d="M102.909 4.796H94.7369V26H89.8049V4.796H81.6329V0.439999H102.909V4.796ZM116.918 26.18C114.878 26.18 113.138 25.844 111.698 25.172C110.282 24.476 109.13 23.528 108.242 22.328C107.378 21.128 106.742 19.772 106.334 18.26C105.926 16.724 105.722 15.128 105.722 13.472V0.439999H110.69V13.472C110.69 14.888 110.882 16.232 111.266 17.504C111.65 18.776 112.298 19.808 113.21 20.6C114.122 21.392 115.346 21.788 116.882 21.788C118.466 21.788 119.714 21.392 120.626 20.6C121.538 19.784 122.186 18.74 122.57 17.468C122.954 16.196 123.146 14.864 123.146 13.472V0.439999H128.078V13.472C128.078 15.224 127.862 16.868 127.43 18.404C127.022 19.94 126.362 21.296 125.45 22.472C124.562 23.624 123.41 24.536 121.994 25.208C120.578 25.856 118.886 26.18 116.918 26.18ZM133.082 26V0.439999H144.386C145.562 0.439999 146.642 0.679998 147.626 1.16C148.634 1.64 149.498 2.288 150.218 3.104C150.962 3.92 151.526 4.832 151.91 5.84C152.318 6.848 152.522 7.88 152.522 8.936C152.522 10.568 152.102 12.068 151.262 13.436C150.446 14.804 149.33 15.788 147.914 16.388L153.746 26H148.274L143.018 17.432H138.05V26H133.082ZM138.05 13.076H144.278C145.214 13.076 145.982 12.68 146.582 11.888C147.206 11.072 147.518 10.088 147.518 8.936C147.518 8.144 147.35 7.436 147.014 6.812C146.678 6.188 146.246 5.696 145.718 5.336C145.214 4.976 144.662 4.796 144.062 4.796H138.05V13.076Z" fill="#AE8485"/>
</svg>
